<svg xmlns="http://www.w3.org/2000/svg" viewBox="0 0 1100 720" role="img" aria-labelledby="title desc">
<title id="title">LexAMS outcomes and certification illustration</title>
<desc id="desc">Abstract illustration showing surveys, assessments, reporting and branded certification.</desc>
<defs>
  <linearGradient id="bg" x1="0" y1="0" x2="1" y2="1"><stop stop-color="#F8F5EC"/><stop offset="1" stop-color="#EEF3F8"/></linearGradient>
  <filter id="s" x="-20%" y="-20%" width="140%" height="140%"><feDropShadow dx="0" dy="18" stdDeviation="22" flood-color="#002B54" flood-opacity=".12"/></filter>
</defs>
<rect width="1100" height="720" rx="44" fill="url(#bg)"/>
<circle cx="925" cy="125" r="115" fill="#FAB72D" opacity=".12"/>
<circle cx="145" cy="605" r="160" fill="#0E4C8F" opacity=".06"/>
<g filter="url(#s)">
  <rect x="440" y="86" width="550" height="430" rx="28" fill="#fff" stroke="#DDE2E8"/>
  <rect x="440" y="86" width="550" height="56" rx="28" fill="#002B54"/>
  <rect x="440" y="116" width="550" height="26" fill="#002B54"/>
  <text x="478" y="121" font-family="Arial" font-size="13" fill="#fff" opacity=".8">Outcome overview</text>
  <g transform="translate(485 182)">
    <text font-family="Arial" font-weight="700" font-size="18" fill="#002B54">Evidence connected to delivery</text>
    <text y="29" font-family="Arial" font-size="12" fill="#748194">Survey, assessment and certificate records in one workspace</text>
    <g transform="translate(0 72)">
      <rect width="200" height="172" rx="20" fill="#F7F9FB" stroke="#E0E5EA"/>
      <text x="20" y="31" font-family="Arial" font-weight="700" font-size="13" fill="#002B54">Assessment</text>
      <circle cx="100" cy="96" r="47" fill="none" stroke="#E5EAF0" stroke-width="14"/>
      <path d="M100 49a47 47 0 1 1-37 76" fill="none" stroke="#0E4C8F" stroke-width="14" stroke-linecap="round"/>
      <text x="100" y="103" text-anchor="middle" font-family="Georgia" font-size="26" font-weight="700" fill="#002B54">84%</text>
      <text x="100" y="126" text-anchor="middle" font-family="Arial" font-size="10" fill="#748194">score</text>
    </g>
    <g transform="translate(220 72)">
      <rect width="260" height="172" rx="20" fill="#F7F9FB" stroke="#E0E5EA"/>
      <text x="20" y="31" font-family="Arial" font-weight="700" font-size="13" fill="#002B54">Survey responses</text>
      <g transform="translate(20 58)"><rect width="220" height="11" rx="5.5" fill="#E2E7EC"/><rect width="172" height="11" rx="5.5" fill="#FAB72D"/><rect y="32" width="220" height="11" rx="5.5" fill="#E2E7EC"/><rect y="32" width="142" height="11" rx="5.5" fill="#0E4C8F"/><rect y="64" width="220" height="11" rx="5.5" fill="#E2E7EC"/><rect y="64" width="188" height="11" rx="5.5" fill="#2E7D4F"/></g>
    </g>
    <g transform="translate(0 266)">
      <rect width="480" height="100" rx="20" fill="#002B54"/>
      <text x="24" y="32" font-family="Arial" font-weight="700" font-size="14" fill="#fff">Reporting-ready activity record</text>
      <text x="24" y="56" font-family="Arial" font-size="11" fill="#C8D4DF">Participation, attendance, feedback and outcomes stay connected.</text>
      <rect x="24" y="72" width="144" height="8" rx="4" fill="#FAB72D"/><rect x="180" y="72" width="90" height="8" rx="4" fill="#ffffff" opacity=".22"/><rect x="282" y="72" width="130" height="8" rx="4" fill="#ffffff" opacity=".22"/>
    </g>
  </g>
</g>
<g transform="translate(92 154)" filter="url(#s)">
  <rect width="400" height="476" rx="30" fill="#FFFDF8" stroke="#E4D7AF" stroke-width="2"/>
  <rect x="18" y="18" width="364" height="440" rx="20" fill="none" stroke="#FAB72D"/>
  <circle cx="200" cy="88" r="34" fill="#002B54"/><path d="m183 89 12 12 24-29" fill="none" stroke="#FAB72D" stroke-width="6" stroke-linecap="round" stroke-linejoin="round"/>
  <text x="200" y="145" text-anchor="middle" font-family="Arial" font-size="11" font-weight="700" letter-spacing="2" fill="#0E4C8F">CERTIFICATE OF COMPLETION</text>
  <text x="200" y="187" text-anchor="middle" font-family="Arial" font-size="12" fill="#748194">This is to certify that</text>
  <rect x="84" y="215" width="232" height="18" rx="9" fill="#002B54" opacity=".92"/>
  <rect x="120" y="254" width="160" height="9" rx="4.5" fill="#C8D0D9"/>
  <rect x="96" y="286" width="208" height="12" rx="6" fill="#FAB72D" opacity=".85"/>
  <g transform="translate(56 354)"><rect width="98" height="1.5" fill="#8A96A5"/><rect x="190" width="98" height="1.5" fill="#8A96A5"/><rect x="113" y="18" width="118" height="8" rx="4" fill="#D5DCE3"/></g>
</g>
<g transform="translate(812 532)" filter="url(#s)"><rect width="208" height="112" rx="24" fill="#fff" stroke="#DDE2E8"/><circle cx="48" cy="56" r="24" fill="#EEF3F8"/><path d="M38 59h20M42 50h12M42 68h16" stroke="#0E4C8F" stroke-width="3" stroke-linecap="round"/><text x="82" y="49" font-family="Arial" font-weight="700" font-size="14" fill="#002B54">Evidence</text><text x="82" y="70" font-family="Arial" font-size="11" fill="#748194">ready to share</text></g>
</svg>